<svg id="Capa_1" enable-background="new 0 0 512 512" height="512" viewBox="0 0 512 512" width="512" xmlns="http://www.w3.org/2000/svg"><g><path d="m436 61h-300c-8.292 0-15 6.707-15 15v421c0 8.292 6.708 15 15 15h300c8.292 0 15-6.708 15-15v-421c0-8.293-6.708-15-15-15z" fill="#fabe2c"/><path d="m451 497v-422c0-8.293-6.708-15-15-15h-150v452h150c8.292 0 15-6.708 15-15z" fill="#ff9100"/><path d="m376 0h-150-150c-8.292 0-15 6.707-15 15v422c0 8.292 6.708 15 15 15h150 150c8.292 0 15-6.708 15-15v-422c0-8.293-6.708-15-15-15z" fill="#edf5ff"/><path d="m391 437v-422c0-8.293-6.708-15-15-15h-150v452h150c8.292 0 15-6.708 15-15z" fill="#d0e4e7"/><g><path d="m196 331h-60c-8.292 0-15-6.708-15-15s6.708-15 15-15h60c8.292 0 15 6.708 15 15s-6.708 15-15 15z" fill="#d0e4e7"/></g><g><path d="m286 391c-24.814 0-45-20.187-45-45s20.186-45 45-45c24.812 0 45 20.187 45 45s-20.188 45-45 45z" fill="#e64d2e"/></g><g><path d="m286 331c-8.278 0-15 6.723-15 15s6.722 15 15 15c8.277 0 15-6.723 15-15s-6.723-15-15-15z" fill="#cc2929"/></g><g fill="#d0e4e7"><path d="m136 91h90 90c8.292 0 15-6.707 15-15s-6.708-15-15-15h-90-90c-8.292 0-15 6.707-15 15s6.708 15 15 15z"/><path d="m226 121h-30c-8.292 0-15 6.707-15 15 0 8.291 6.708 15 15 15h30 30c8.292 0 15-6.709 15-15 0-8.293-6.708-15-15-15z"/><path d="m316 181h-90-90c-8.292 0-15 6.707-15 15 0 8.291 6.708 15 15 15h90 90c8.292 0 15-6.709 15-15 0-8.293-6.708-15-15-15z"/><path d="m316 241h-90-90c-8.292 0-15 6.707-15 15 0 8.291 6.708 15 15 15h90 90c8.292 0 15-6.709 15-15 0-8.293-6.708-15-15-15z"/></g><path d="m331 76c0-8.293-6.708-15-15-15h-90v30h90c8.292 0 15-6.707 15-15z" fill="#a8d3d8"/><path d="m271 136c0-8.293-6.708-15-15-15h-30v30h30c8.292 0 15-6.709 15-15z" fill="#a8d3d8"/><path d="m331 196c0-8.293-6.708-15-15-15h-90v30h90c8.292 0 15-6.709 15-15z" fill="#a8d3d8"/><path d="m331 256c0-8.293-6.708-15-15-15h-90v30h90c8.292 0 15-6.709 15-15z" fill="#a8d3d8"/></g></svg>