<svg id="visual" viewBox="0 0 1024 738" width="1024" height="738" xmlns="http://www.w3.org/2000/svg" xmlns:xlink="http://www.w3.org/1999/xlink" version="1.1"><rect x="0" y="0" width="1024" height="738" fill="#ffffff"></rect><defs><linearGradient id="grad1_0" x1="27.9%" y1="0%" x2="100%" y2="100%"><stop offset="22.249322493224934%" stop-color="#715df2" stop-opacity="1"></stop><stop offset="77.75067750677506%" stop-color="#715df2" stop-opacity="1"></stop></linearGradient></defs><defs><linearGradient id="grad1_1" x1="27.9%" y1="0%" x2="100%" y2="100%"><stop offset="22.249322493224934%" stop-color="#715df2" stop-opacity="1"></stop><stop offset="77.75067750677506%" stop-color="#c1acfa" stop-opacity="1"></stop></linearGradient></defs><defs><linearGradient id="grad1_2" x1="27.9%" y1="0%" x2="100%" y2="100%"><stop offset="22.249322493224934%" stop-color="#ffffff" stop-opacity="1"></stop><stop offset="77.75067750677506%" stop-color="#c1acfa" stop-opacity="1"></stop></linearGradient></defs><defs><linearGradient id="grad2_0" x1="0%" y1="0%" x2="72.1%" y2="100%"><stop offset="22.249322493224934%" stop-color="#715df2" stop-opacity="1"></stop><stop offset="77.75067750677506%" stop-color="#715df2" stop-opacity="1"></stop></linearGradient></defs><defs><linearGradient id="grad2_1" x1="0%" y1="0%" x2="72.1%" y2="100%"><stop offset="22.249322493224934%" stop-color="#c1acfa" stop-opacity="1"></stop><stop offset="77.75067750677506%" stop-color="#715df2" stop-opacity="1"></stop></linearGradient></defs><defs><linearGradient id="grad2_2" x1="0%" y1="0%" x2="72.1%" y2="100%"><stop offset="22.249322493224934%" stop-color="#c1acfa" stop-opacity="1"></stop><stop offset="77.75067750677506%" stop-color="#ffffff" stop-opacity="1"></stop></linearGradient></defs><g transform="translate(1024, 0)"><path d="M0 441.8C-32.7 439.3 -65.4 436.8 -98.3 430.7C-131.2 424.6 -164.3 414.9 -190 394.6C-215.8 374.4 -234.2 343.5 -253.8 318.2C-273.4 292.9 -294.1 273.1 -313.5 250C-332.9 226.9 -350.8 200.5 -357.7 172.3C-364.5 144 -360.3 114 -372.4 85C-384.6 56 -413.2 28 -441.8 0L0 0Z" fill="#e1d5fd"></path><path d="M0 294.5C-21.8 292.9 -43.6 291.2 -65.5 287.1C-87.5 283.1 -109.5 276.6 -126.7 263.1C-143.9 249.6 -156.1 229 -169.2 212.1C-182.2 195.3 -196.1 182.1 -209 166.7C-221.9 151.3 -233.9 133.7 -238.5 114.8C-243 96 -240.2 76 -248.3 56.7C-256.4 37.3 -275.5 18.7 -294.5 0L0 0Z" fill="#9c84f7"></path><path d="M0 147.3C-10.9 146.4 -21.8 145.6 -32.8 143.6C-43.7 141.5 -54.8 138.3 -63.3 131.5C-71.9 124.8 -78.1 114.5 -84.6 106.1C-91.1 97.6 -98 91 -104.5 83.3C-111 75.6 -116.9 66.8 -119.2 57.4C-121.5 48 -120.1 38 -124.1 28.3C-128.2 18.7 -137.7 9.3 -147.3 0L0 0Z" fill="#715df2"></path></g><g transform="translate(0, 738)"><path d="M0 -441.8C27 -409.4 54 -377.1 83.9 -367.5C113.8 -358 146.7 -371.4 178.8 -371.2C210.8 -371 242.1 -357.2 271.2 -340.1C300.4 -323 327.5 -302.5 345.4 -275.4C363.3 -248.4 372 -214.9 382 -184C392 -153 403.2 -124.6 413.4 -94.3C423.5 -64.1 432.7 -32.1 441.8 0L0 0Z" fill="#e1d5fd"></path><path d="M0 -294.5C18 -272.9 36 -251.4 55.9 -245C75.9 -238.7 97.8 -247.6 119.2 -247.5C140.5 -247.3 161.4 -238.2 180.8 -226.7C200.3 -215.3 218.3 -201.6 230.3 -183.6C242.2 -165.6 248 -143.3 254.7 -122.6C261.3 -102 268.8 -83.1 275.6 -62.9C282.4 -42.7 288.4 -21.4 294.5 0L0 0Z" fill="#9c84f7"></path><path d="M0 -147.3C9 -136.5 18 -125.7 28 -122.5C37.9 -119.3 48.9 -123.8 59.6 -123.7C70.3 -123.7 80.7 -119.1 90.4 -113.4C100.1 -107.7 109.2 -100.8 115.1 -91.8C121.1 -82.8 124 -71.6 127.3 -61.3C130.7 -51 134.4 -41.5 137.8 -31.4C141.2 -21.4 144.2 -10.7 147.3 0L0 0Z" fill="#715df2"></path></g></svg>