<svg id="visual" viewBox="0 0 1024 738" width="1024" height="738" xmlns="http://www.w3.org/2000/svg" xmlns:xlink="http://www.w3.org/1999/xlink" version="1.1"><rect x="0" y="0" width="1024" height="738" fill="#0f0e17"></rect><defs><linearGradient id="grad1_0" x1="27.9%" y1="0%" x2="100%" y2="100%"><stop offset="22.249322493224934%" stop-color="#715df2" stop-opacity="1"></stop><stop offset="77.75067750677506%" stop-color="#715df2" stop-opacity="1"></stop></linearGradient></defs><defs><linearGradient id="grad1_1" x1="27.9%" y1="0%" x2="100%" y2="100%"><stop offset="22.249322493224934%" stop-color="#715df2" stop-opacity="1"></stop><stop offset="77.75067750677506%" stop-color="#37377e" stop-opacity="1"></stop></linearGradient></defs><defs><linearGradient id="grad1_2" x1="27.9%" y1="0%" x2="100%" y2="100%"><stop offset="22.249322493224934%" stop-color="#0f0e17" stop-opacity="1"></stop><stop offset="77.75067750677506%" stop-color="#37377e" stop-opacity="1"></stop></linearGradient></defs><defs><linearGradient id="grad2_0" x1="0%" y1="0%" x2="72.1%" y2="100%"><stop offset="22.249322493224934%" stop-color="#715df2" stop-opacity="1"></stop><stop offset="77.75067750677506%" stop-color="#715df2" stop-opacity="1"></stop></linearGradient></defs><defs><linearGradient id="grad2_1" x1="0%" y1="0%" x2="72.1%" y2="100%"><stop offset="22.249322493224934%" stop-color="#37377e" stop-opacity="1"></stop><stop offset="77.75067750677506%" stop-color="#715df2" stop-opacity="1"></stop></linearGradient></defs><defs><linearGradient id="grad2_2" x1="0%" y1="0%" x2="72.1%" y2="100%"><stop offset="22.249322493224934%" stop-color="#37377e" stop-opacity="1"></stop><stop offset="77.75067750677506%" stop-color="#0f0e17" stop-opacity="1"></stop></linearGradient></defs><g transform="translate(1024, 0)"><path d="M0 441.8C-34.7 442.5 -69.5 443.2 -96.8 424.1C-124.1 405 -144 366 -164.4 341.5C-184.9 316.9 -205.8 306.8 -240.7 301.8C-275.5 296.8 -324.2 296.8 -345.4 275.4C-366.6 254.1 -360.4 211.3 -372.1 179.2C-383.8 147.1 -413.4 125.8 -428 97.7C-442.6 69.6 -442.2 34.8 -441.8 0L0 0Z" fill="#222348"></path><path d="M0 294.5C-23.2 295 -46.3 295.5 -64.5 282.7C-82.7 270 -96 244 -109.6 227.6C-123.2 211.3 -137.2 204.5 -160.4 201.2C-183.7 197.8 -216.1 197.9 -230.3 183.6C-244.4 169.4 -240.3 140.8 -248.1 119.5C-255.9 98.1 -275.6 83.8 -285.3 65.1C-295.1 46.4 -294.8 23.2 -294.5 0L0 0Z" fill="#504ab7"></path><path d="M0 147.3C-11.6 147.5 -23.2 147.7 -32.3 141.4C-41.4 135 -48 122 -54.8 113.8C-61.6 105.6 -68.6 102.3 -80.2 100.6C-91.8 98.9 -108.1 98.9 -115.1 91.8C-122.2 84.7 -120.1 70.4 -124 59.7C-127.9 49 -137.8 41.9 -142.7 32.6C-147.5 23.2 -147.4 11.6 -147.3 0L0 0Z" fill="#715df2"></path></g><g transform="translate(0, 738)"><path d="M0 -441.8C28.8 -421.4 57.6 -401.1 90.6 -396.8C123.5 -392.5 160.7 -404.3 190.9 -396.4C221.2 -388.5 244.5 -360.9 270 -338.5C295.4 -316.2 323 -299 345.4 -275.4C367.8 -251.9 385 -221.9 396.4 -190.9C407.9 -159.9 413.6 -127.9 420.2 -95.9C426.8 -63.9 434.3 -32 441.8 0L0 0Z" fill="#222348"></path><path d="M0 -294.5C19.2 -280.9 38.4 -267.4 60.4 -264.5C82.4 -261.7 107.1 -269.6 127.3 -264.3C147.4 -259 163 -240.6 180 -225.7C197 -210.8 215.3 -199.3 230.3 -183.6C245.2 -167.9 256.6 -147.9 264.3 -127.3C271.9 -106.6 275.7 -85.3 280.1 -63.9C284.5 -42.6 289.5 -21.3 294.5 0L0 0Z" fill="#504ab7"></path><path d="M0 -147.3C9.6 -140.5 19.2 -133.7 30.2 -132.3C41.2 -130.8 53.6 -134.8 63.6 -132.1C73.7 -129.5 81.5 -120.3 90 -112.8C98.5 -105.4 107.7 -99.7 115.1 -91.8C122.6 -84 128.3 -74 132.1 -63.6C136 -53.3 137.9 -42.6 140.1 -32C142.3 -21.3 144.8 -10.7 147.3 0L0 0Z" fill="#715df2"></path></g></svg>