<svg id="visual" viewBox="0 0 320 738" width="320" height="738" xmlns="http://www.w3.org/2000/svg" xmlns:xlink="http://www.w3.org/1999/xlink" version="1.1"><rect x="0" y="0" width="320" height="738" fill="#ffffff"></rect><defs><linearGradient id="grad1_0" x1="0%" y1="0%" x2="100%" y2="100%"><stop offset="30%" stop-color="#ffffff" stop-opacity="1"></stop><stop offset="70%" stop-color="#ffffff" stop-opacity="1"></stop></linearGradient></defs><defs><linearGradient id="grad2_0" x1="0%" y1="0%" x2="100%" y2="100%"><stop offset="30%" stop-color="#ffffff" stop-opacity="1"></stop><stop offset="70%" stop-color="#ffffff" stop-opacity="1"></stop></linearGradient></defs><g transform="translate(320, 0)"><path d="M0 288C-36.2 276.9 -72.3 265.8 -103.3 249.4C-134.3 233.1 -160.1 211.6 -188.8 188.8C-217.5 166 -249.1 141.9 -266.1 110.2C-283.1 78.5 -285.5 39.3 -288 0L0 0Z" fill="#715DF2"></path></g><g transform="translate(0, 738)"><path d="M0 -288C37.1 -280.7 74.2 -273.4 107.2 -258.7C140.1 -243.9 168.8 -221.7 196.6 -196.6C224.3 -171.5 251 -143.5 266.1 -110.2C281.1 -77 284.6 -38.5 288 0L0 0Z" fill="#715DF2"></path></g></svg>