<?xml version="1.0" encoding="iso-8859-1"?>
<!-- Generator: Adobe Illustrator 19.0.0, SVG Export Plug-In . SVG Version: 6.00 Build 0)  -->
<svg version="1.1" id="Capa_1" xmlns="http://www.w3.org/2000/svg" xmlns:xlink="http://www.w3.org/1999/xlink" x="0px" y="0px"
	 viewBox="0 0 512 512" style="enable-background:new 0 0 512 512;" xml:space="preserve">
<path style="fill:#B2EDFF;" d="M256.452,512c81.62-0.242,148.809-68.446,148.189-150.069
	C403.776,247.941,298.85,126.992,263.324,5.509c-1.076-3.68-4.2-5.514-7.323-5.509c-3.124-0.005-6.248,1.829-7.324,5.509
	C213.152,126.992,108.225,247.941,107.36,361.931C106.74,443.554,173.929,511.758,255.549,512"/>
<path style="fill:#E8FAFF;" d="M305.561,471.001c-4.472,0-8.786-2.427-10.996-6.661c-3.161-6.065-0.806-13.548,5.258-16.71
	c24.548-12.798,42.266-35.524,48.605-62.347c1.577-6.661,8.222-10.79,14.907-9.21c6.657,1.573,10.778,8.25,9.206,14.903
	c-8,33.839-30.331,62.5-61.266,78.621C309.444,470.549,307.488,471.001,305.561,471.001z"/>
<path style="fill:#59D8FF;" d="M305.999,495.485h-0.903c-81.62-0.258-148.809-72.863-148.189-159.751
	c0.643-90.187,58.761-184.468,103.152-280.032c7.276-15.663,8.196-33.373,3.336-49.945c-0.024-0.083-0.048-0.165-0.072-0.248
	c-1.076-3.68-4.2-5.514-7.323-5.509c-3.124-0.006-6.247,1.829-7.324,5.509c-37.83,129.365-154.36,258.126-140.122,378.522
	C117.251,457.577,181.491,512,255.549,512h0.902c25.433-0.076,49.46-6.759,70.476-18.382
	C320.067,494.702,313.115,495.462,305.999,495.485z"/>
<g>
</g>
<g>
</g>
<g>
</g>
<g>
</g>
<g>
</g>
<g>
</g>
<g>
</g>
<g>
</g>
<g>
</g>
<g>
</g>
<g>
</g>
<g>
</g>
<g>
</g>
<g>
</g>
<g>
</g>
</svg>
