<svg id="_x33_0" enable-background="new 0 0 64 64" height="512" viewBox="0 0 64 64" width="512" xmlns="http://www.w3.org/2000/svg"><path d="m61 2h-36c-.55 0-1 .45-1 1v27h22v-12h16v-15c0-.55-.45-1-1-1z" fill="#d3a06c"/><path d="m47 2v8l-2-2-2 2-2-2-2 2v-8z" fill="#fcd770"/><path d="m46 30v-12h16v17c0 .55-.45 1-1 1h-3v-6z" fill="#e6e9ed"/><path d="m14 24v6h-3c-1.66 0-3-1.34-3-3 0-.83.34-1.58.88-2.12s1.29-.88 2.12-.88z" fill="#37bc9b"/><path d="m11 30h3 10 22 12v6 22h-4v-24h-46v-7c0 1.66 1.34 3 3 3z" fill="#5cd6b3"/><path d="m54 58v4h-52v-28h6 46z" fill="#37bc9b"/><path d="m11 38h17c-5.52 0-10 4.48-10 10s4.48 10 10 10h-17c0-2.76-2.24-5-5-5v-10c2.76 0 5-2.24 5-5z" fill="#5cd6b3"/><path d="m50 43v10c-2.76 0-5 2.24-5 5h-17c5.52 0 10-4.48 10-10s-4.48-10-10-10h17c0 2.76 2.24 5 5 5z" fill="#5cd6b3"/><g fill="#e6e9ed"><path d="m11 58h-5v-5c2.76 0 5 2.24 5 5z"/><path d="m6 38h5c0 2.76-2.24 5-5 5z"/><path d="m50 53v5h-5c0-2.76 2.24-5 5-5z"/><path d="m50 38v5c-2.76 0-5-2.24-5-5z"/></g><circle cx="28" cy="48" fill="#fcd770" r="10"/><path d="m29 41h-2v2h-2v6h4v2h-4v2h2v2h2v-2h2v-6h-4v-2h4v-2h-2z"/><path d="m51 59v-22h-46v22zm-4.858-2c.364-1.399 1.459-2.495 2.858-2.858v2.858zm2.858-15.142c-1.399-.364-2.495-1.459-2.858-2.858h2.858zm-4.91-2.858c.423 2.507 2.403 4.486 4.91 4.91v8.181c-2.507.423-4.486 2.403-4.91 4.91h-9.786c2.835-1.993 4.696-5.281 4.696-9.001s-1.861-7.008-4.695-9zm-16.09 18c-4.963 0-9-4.037-9-9s4.037-9 9-9 9 4.037 9 9-4.037 9-9 9zm-18.142-18c-.363 1.399-1.459 2.495-2.858 2.858v-2.858zm-2.858 15.142c1.399.363 2.495 1.459 2.858 2.858h-2.858zm4.91 2.858c-.423-2.507-2.403-4.486-4.91-4.91v-8.18c2.507-.423 4.486-2.403 4.91-4.91h9.786c-2.835 1.992-4.696 5.28-4.696 9s1.861 7.008 4.695 9z"/><path d="m61 1h-36c-1.103 0-2 .897-2 2v26h-8v-6h-4c-2.206 0-4 1.794-4 4v6h-6v30h54v-4h4v-22h2c1.103 0 2-.897 2-2v-32c0-1.103-.897-2-2-2zm-21 2h6v4.586l-1-1-2 2-2-2-1 1zm-15 0h13v9.414l3-3 2 2 2-2 3 3v-9.414h13v14h-16v12h-20zm-14 22h2v4h-2c-1.103 0-2-.897-2-2s.897-2 2-2zm42 36h-50v-26h50zm4-4h-2v-24h-46v-2.556c.591.344 1.268.556 2 .556h46zm2-22v-6h-12v-10h14v16z"/><path d="m49 25h10v2h-10z"/><path d="m49 21h2v2h-2z"/><path d="m53 21h6v2h-6z"/></svg>