<?xml version="1.0" encoding="iso-8859-1"?>
<!-- Generator: Adobe Illustrator 19.0.0, SVG Export Plug-In . SVG Version: 6.00 Build 0)  -->
<svg version="1.1" id="Capa_1" xmlns="http://www.w3.org/2000/svg" xmlns:xlink="http://www.w3.org/1999/xlink" x="0px" y="0px"
	 viewBox="0 0 512.001 512.001" style="enable-background:new 0 0 512.001 512.001;" xml:space="preserve">
<polygon style="fill:#E1EFFB;" points="428.847,160.051 249.262,40.589 69.677,160.051 69.677,467.966 428.928,467.966 
	428.928,160.051 "/>
<polygon style="fill:#CCDFED;" points="428.847,160.051 249.262,40.589 212.404,65.107 383.931,179.208 384.013,179.208 
	384.013,467.966 428.928,467.966 428.928,160.051 "/>
<path style="fill:#FF4C4C;" d="M36.093,208.016L246.266,68.207c1.839-1.224,4.233-1.224,6.073,0l210.173,139.809
	c5.919,3.937,13.622,3.937,19.541,0l0,0c10.493-6.98,10.493-22.395,0-29.375L252.339,25.834c-1.839-1.224-4.233-1.224-6.073,0
	L16.553,178.641c-10.493,6.98-10.493,22.395,0,29.375l0,0C22.471,211.953,30.175,211.953,36.093,208.016z"/>
<g>
	<circle style="fill:#FFB125;" cx="249.3" cy="153.381" r="38.821"/>
	<rect x="187.31" y="300.061" style="fill:#FFB125;" width="123.98" height="187.04"/>
</g>
<rect x="249.3" y="300.061" style="fill:#FF901D;" width="61.99" height="187.04"/>
<path style="fill:#2D5871;" d="M464.327,457.54H34.278c-8.16,0-14.776,6.615-14.776,14.776l0,0c0,8.16,6.615,14.776,14.776,14.776
	h430.048c8.16,0,14.776-6.615,14.776-14.776l0,0C479.102,464.156,472.487,457.54,464.327,457.54z"/>
<path style="fill:#F33939;" d="M488.894,199.236c0.114-0.324,0.231-0.648,0.325-0.977c0.053-0.185,0.091-0.372,0.138-0.558
	c0.083-0.331,0.172-0.66,0.236-0.995c0.036-0.186,0.056-0.374,0.084-0.561c0.064-0.431,0.131-0.862,0.162-1.298
	c0.03-0.431,0.07-0.86,0.075-1.292c0.002-0.181-0.012-0.362-0.015-0.543c-0.006-0.361-0.012-0.723-0.04-1.084
	c-0.014-0.176-0.041-0.351-0.061-0.527c-0.039-0.366-0.081-0.73-0.143-1.093c-0.029-0.168-0.069-0.334-0.102-0.501
	c-0.074-0.368-0.153-0.735-0.25-1.099c-0.043-0.16-0.094-0.317-0.142-0.476c-0.109-0.367-0.226-0.731-0.36-1.092
	c-0.056-0.151-0.119-0.3-0.179-0.451c-0.146-0.362-0.301-0.72-0.472-1.073c-0.069-0.143-0.142-0.284-0.215-0.425
	c-0.182-0.353-0.377-0.7-0.584-1.041c-0.041-0.068-0.074-0.14-0.116-0.207c-0.002,0.004-0.005,0.007-0.007,0.01
	c-1.274-2.033-2.987-3.86-5.173-5.314l-22.95-15.267l-2.57,3.947c-4.492,6.897-13.747,8.804-20.6,4.246L252.339,49.439
	c-1.839-1.223-4.233-1.223-6.073,0L36.093,189.248c-5.919,3.937-13.622,3.937-19.541,0l0,0c-2.183-1.452-3.905-3.273-5.18-5.303
	c-4.856,7.736-3.127,18.562,5.201,24.086c6.007,3.984,13.891,3.73,19.892-0.262L246.266,68.207c1.839-1.223,4.233-1.223,6.073,0
	l210.173,139.809c5.919,3.937,13.622,3.937,19.541,0c0.454-0.302,0.882-0.626,1.296-0.959c0.144-0.116,0.284-0.235,0.423-0.354
	c0.263-0.226,0.517-0.458,0.764-0.696c0.149-0.143,0.302-0.283,0.445-0.43c0.297-0.307,0.581-0.622,0.852-0.944l0.015-0.024
	c0.891-1.066,1.632-2.216,2.23-3.424l0.038-0.058c0.065-0.132,0.115-0.27,0.176-0.404c0.144-0.313,0.287-0.625,0.411-0.944
	C488.773,199.599,488.83,199.417,488.894,199.236z"/>
<path style="fill:#1D4859;" d="M479.006,470.677c-0.012-0.109-0.034-0.214-0.049-0.322c-0.059-0.445-0.134-0.884-0.232-1.315
	c-0.018-0.077-0.04-0.151-0.058-0.227c-0.115-0.472-0.252-0.934-0.411-1.387c-0.01-0.029-0.021-0.058-0.032-0.087
	c-0.178-0.497-0.381-0.98-0.61-1.451v-0.001l0,0c-2.393-4.935-7.435-8.346-13.288-8.346h-30.14v6.594
	c0,5.577-4.521,10.098-10.098,10.098H34.278c-5.852,0-10.895-3.411-13.288-8.346c-1.191,2.457-1.746,5.279-1.373,8.271
	c0.931,7.467,7.533,12.935,15.058,12.935h429.652c8.161,0,14.776-6.616,14.776-14.776
	C479.102,471.761,479.066,471.216,479.006,470.677z"/>
<path style="fill:#FF6D3A;" d="M344.613,487.092h-39.514V211.116c0-10.911,8.845-19.757,19.757-19.757l0,0
	c10.911,0,19.757,8.846,19.757,19.757L344.613,487.092L344.613,487.092z"/>
<path style="fill:#ED5729;" d="M324.857,191.359L324.857,191.359c-3.603,0-6.97,0.98-9.878,2.665
	c5.9,3.417,9.878,9.784,9.878,17.092v275.977h19.757V211.116C344.613,200.204,335.768,191.359,324.857,191.359z"/>
<path style="fill:#61AFF6;" d="M493.621,389.138H156.092c-6.855,0-12.411-5.557-12.411-12.411V247.804
	c0-6.855,5.557-12.411,12.411-12.411H493.62c6.855,0,12.411,5.557,12.411,12.411v128.923
	C506.032,383.581,500.475,389.138,493.621,389.138z"/>
<path style="fill:#55A2F0;" d="M493.621,235.393h-32.504v122.452c0,6.855-5.557,12.412-12.411,12.412H143.681v6.471
	c0,6.855,5.557,12.412,12.411,12.412H493.62c6.855,0,12.411-5.557,12.411-12.412V247.804
	C506.032,240.949,500.475,235.393,493.621,235.393z"/>
<g>
	<path style="fill:#FFFFFF;" d="M241.99,316.846c7.96-2.441,13.904-9.022,13.904-21.229c0-16.876-11.251-22.182-25.155-22.182
		h-21.015c-2.653,0-4.458,2.017-4.458,4.245v68.991c0,2.866,3.502,4.352,6.899,4.352c3.502,0,6.899-1.486,6.899-4.352v-27.703h8.916
		l15.072,29.295c1.062,2.123,2.866,3.291,4.777,3.291c4.033,0,8.597-3.715,8.597-7.217c0-0.424-0.106-1.168-0.53-1.699
		L241.99,316.846z M230.739,308.143h-11.675v-22.608h11.675c6.9,0,11.357,2.972,11.357,11.357
		C242.096,305.278,237.638,308.143,230.739,308.143z"/>
	<path style="fill:#FFFFFF;" d="M311.718,285.535c2.759,0,4.352-2.866,4.352-6.157c0-2.865-1.38-5.943-4.352-5.943h-37.786
		c-3.078,0-6.05,1.486-6.05,4.352v68.884c0,2.866,2.972,4.352,6.05,4.352h37.786c2.972,0,4.352-3.079,4.352-5.944
		c0-3.291-1.593-6.156-4.352-6.156H281.68v-21.335h16.133c2.972,0,4.352-2.865,4.352-5.307c0-2.865-1.593-5.52-4.352-5.52H281.68
		v-21.228h30.038V285.535z"/>
	<path style="fill:#FFFFFF;" d="M370.834,273.435c-3.502,0-6.899,1.273-6.899,4.245v42.668l-20.486-39.589
		c-3.29-6.263-5.307-7.324-10.295-7.324c-3.502,0-6.899,1.38-6.899,4.352v68.884c0,2.866,3.396,4.352,6.899,4.352
		c3.396,0,6.899-1.486,6.899-4.352v-42.668l22.821,42.668c1.805,3.29,4.67,4.352,7.96,4.352c3.396,0,6.899-1.486,6.899-4.352v-68.99
		C377.733,274.709,374.231,273.435,370.834,273.435z"/>
	<path style="fill:#FFFFFF;" d="M436.742,273.435h-44.897c-2.972,0-4.352,3.185-4.352,6.156c0,3.396,1.593,6.263,4.352,6.263h15.602
		v60.818c0,2.866,3.396,4.352,6.9,4.352c3.396,0,6.899-1.486,6.899-4.352v-60.818h15.496c2.759,0,4.351-2.972,4.351-6.263
		C441.093,276.62,439.714,273.435,436.742,273.435z"/>
</g>
<path d="M492.264,228.067H350.581v-16.951c0-14.933-12.149-27.082-27.082-27.082s-27.082,12.149-27.082,27.082v16.951H154.735
	c-10.203,0-18.622,7.782-19.634,17.722c-0.067,0.663-0.102,1.335-0.102,2.015v128.923c0,10.883,8.854,19.737,19.736,19.737h23.895
	v53.751H75.644V189.601L247.945,74.986l92.867,61.775l79.434,52.84v20.815c0,4.046,3.28,7.325,7.325,7.325s7.325-3.279,7.325-7.325
	v-11.07l22.201,14.768c8.4,5.588,19.254,5.588,27.655,0c6.974-4.639,11.138-12.41,11.138-20.787c0-8.376-4.164-16.147-11.138-20.785
	L255.039,19.735c-4.31-2.867-9.878-2.867-14.187,0l-133.285,88.663c-3.368,2.24-4.283,6.787-2.042,10.156
	c2.241,3.368,6.789,4.283,10.156,2.041l132.264-87.984L476.638,184.74c2.924,1.946,4.602,5.076,4.602,8.589
	s-1.678,6.643-4.602,8.589c-3.471,2.309-7.956,2.309-11.427,0L255.039,62.109c-4.31-2.866-9.878-2.868-14.187,0L30.678,201.918
	c-3.47,2.307-7.955,2.309-11.426-0.001c-2.925-1.945-4.602-5.075-4.602-8.588s1.677-6.643,4.602-8.589l58.535-38.938
	c3.368-2.24,4.283-6.787,2.042-10.156c-2.241-3.367-6.788-4.283-10.156-2.041l-58.535,38.937C4.164,177.181,0,184.951,0,193.329
	s4.164,16.148,11.138,20.786c4.201,2.795,9.013,4.192,13.828,4.192c4.813-0.001,9.628-1.398,13.827-4.192l22.201-14.768v250.868
	H32.921c-12.187,0-22.101,9.915-22.101,22.101c0,12.187,9.914,22.101,22.101,22.101h270.822h39.514H462.97
	c12.187,0,22.101-9.915,22.101-22.101c0-12.187-9.914-22.101-22.101-22.101h-28.073v-36.103c0-4.046-3.28-7.325-7.325-7.325
	s-7.325,3.279-7.325,7.325v36.103h-69.664v-53.751h141.682c10.883,0,19.736-8.854,19.736-19.737V247.804
	C512,236.921,503.146,228.067,492.264,228.067z M311.067,211.116c0-6.855,5.577-12.432,12.432-12.432s12.432,5.577,12.432,12.432
	v16.951h-24.864V211.116z M296.417,479.767H32.921c-4.108,0-7.451-3.342-7.451-7.451c0-4.109,3.342-7.451,7.451-7.451h35.398
	h117.636h110.462V479.767z M296.417,450.215H193.28v-53.751h103.137V450.215z M335.931,457.54v22.227h-24.864V457.54v-61.076h24.864
	V457.54z M427.571,464.865h35.398c4.108,0,7.451,3.342,7.451,7.451c0,4.109-3.342,7.451-7.451,7.451H350.581v-14.902
	L427.571,464.865L427.571,464.865z M497.35,376.727c0,2.805-2.281,5.087-5.086,5.087H343.256h-39.514H185.955h-31.22
	c-2.805,0-5.086-2.281-5.086-5.087V247.804c0-2.804,2.281-5.086,5.086-5.086h149.007h39.514c0.006,0,0.013-0.001,0.019-0.001
	h148.988c2.805,0,5.086,2.281,5.086,5.087L497.35,376.727L497.35,376.727z"/>
<path d="M201.799,153.38c0,25.445,20.701,46.147,46.146,46.147s46.146-20.701,46.146-46.147c0-25.444-20.701-46.146-46.146-46.146
	S201.799,127.935,201.799,153.38z M240.62,184.007c-11.502-2.751-20.568-11.826-23.309-23.333h23.309V184.007z M240.62,146.024
	h-23.294c2.758-11.478,11.813-20.524,23.294-23.27V146.024z M255.27,122.754c11.482,2.746,20.537,11.793,23.294,23.27H255.27
	V122.754z M255.27,160.674h23.308c-2.74,11.507-11.806,20.581-23.308,23.333V160.674z"/>
<g>
</g>
<g>
</g>
<g>
</g>
<g>
</g>
<g>
</g>
<g>
</g>
<g>
</g>
<g>
</g>
<g>
</g>
<g>
</g>
<g>
</g>
<g>
</g>
<g>
</g>
<g>
</g>
<g>
</g>
</svg>
