<svg id="filled_outline" height="512" viewBox="0 0 512 512" width="512" xmlns="http://www.w3.org/2000/svg" data-name="filled outline"><path d="m24 296h464v32h-464z" fill="#7dafff"/><path d="m472 328-8.89 32-6.67 24-24.44 88h-352l-24.44-88-6.67-24-8.89-32z" fill="#548aff"/><g fill="#4976f2"><rect height="24" rx="12" width="64" x="224" y="360"/><rect height="24" rx="12" width="64" x="128" y="360"/><path d="m96 372a11.984 11.984 0 0 1 -12 12h-28.43994l-6.66992-24h35.10986a11.99685 11.99685 0 0 1 12 12z"/><path d="m463.10986 360-6.66992 24h-28.43994a12 12 0 1 1 0-24z"/><rect height="24" rx="12" width="64" x="320" y="360"/><rect height="24" rx="12" width="64" x="272" y="416"/><rect height="24" rx="12" width="64" x="176" y="416"/><rect height="24" rx="12" width="64" x="80" y="416"/><rect height="24" rx="12" width="64" x="368" y="416"/></g><path d="m240 152v-32h-80v24a105.29794 105.29794 0 0 0 -72 99.89453v52.10547h168v-128zm-32 88h-72a64 64 0 0 1 64-64h8z" fill="#ffc431"/><path d="m160 88h80v32h-80z" fill="#ffa100"/><path d="m176 48h48v40h-48z" fill="#f78e00"/><path d="m288 296v-136h104l40 72v64z" fill="#ffc431"/><path d="m304 128h72v32h-72z" fill="#ffa100"/><path d="m320 96h40v32h-40z" fill="#f78e00"/><path d="m448 64v32h-152v-56h96l24 10.29z" fill="#ffa100"/><path d="m448 64v32h-32v-45.71z" fill="#f78e00"/><path d="m400 96v24l24 24 8-8-8-24v-16z" fill="#e87000"/><path d="m320 296v-104h48l24 40v64z" fill="#ffe28f"/><path d="m488 288h-464a8.00039 8.00039 0 0 0 -8 8v32a8.00039 8.00039 0 0 0 8 8h9.91943l38.37257 138.1416a8.00019 8.00019 0 0 0 7.708 5.8584h352a8.00019 8.00019 0 0 0 7.708-5.8584l38.37257-138.1416h9.91943a8.00039 8.00039 0 0 0 8-8v-32a8.00039 8.00039 0 0 0 -8-8zm-428.58594 80h24.58594a4 4 0 0 1 0 8h-22.36377zm390.94971 8h-22.36377a4 4 0 0 1 0-8h24.58594zm6.6665-24h-29.03027a20 20 0 0 0 0 40h17.91919l-7.71314 27.76685a20.01273 20.01273 0 0 0 -18.20605-11.76685h-40a20 20 0 0 0 0 40h40a19.87727 19.87727 0 0 0 11.3501-3.55151l-5.4311 19.55151h-339.83795l-5.43115-19.55151a19.87727 19.87727 0 0 0 11.3501 3.55151h40a20 20 0 0 0 0-40h-40a20.01273 20.01273 0 0 0 -18.206 11.76685l-7.71319-27.76685h17.91919a20 20 0 0 0 0-40h-29.03027l-4.44458-16h410.9497zm-33.03027 76a4.004 4.004 0 0 1 -4 4h-40a4 4 0 0 1 0-8h40a4.004 4.004 0 0 1 4 4zm-336 0a4.004 4.004 0 0 1 4-4h40a4 4 0 0 1 0 8h-40a4.004 4.004 0 0 1 -4-4zm392-108h-448v-16h448z"/><path d="m236 392h40a20 20 0 0 0 0-40h-40a20 20 0 0 0 0 40zm0-24h40a4 4 0 0 1 0 8h-40a4 4 0 0 1 0-8z"/><path d="m140 392h40a20 20 0 0 0 0-40h-40a20 20 0 0 0 0 40zm0-24h40a4 4 0 0 1 0 8h-40a4 4 0 0 1 0-8z"/><path d="m332 392h40a20 20 0 0 0 0-40h-40a20 20 0 0 0 0 40zm0-24h40a4 4 0 0 1 0 8h-40a4 4 0 0 1 0-8z"/><path d="m324 408h-40a20 20 0 0 0 0 40h40a20 20 0 0 0 0-40zm0 24h-40a4 4 0 0 1 0-8h40a4 4 0 0 1 0 8z"/><path d="m228 408h-40a20 20 0 0 0 0 40h40a20 20 0 0 0 0-40zm0 24h-40a4 4 0 0 1 0-8h40a4 4 0 0 1 0 8z"/><path d="m200 168a72.08124 72.08124 0 0 0 -72 72 8.00039 8.00039 0 0 0 8 8h72a8.00039 8.00039 0 0 0 8-8v-64a8.00039 8.00039 0 0 0 -8-8zm0 64h-55.43066a56.08853 56.08853 0 0 1 55.43066-48z"/><path d="m224 40h-48a8.00039 8.00039 0 0 0 -8 8v32h-8a8.00039 8.00039 0 0 0 -8 8v50.38965a113.13894 113.13894 0 0 0 -72 105.50488v28.10547h16v-28.10547a97.17421 97.17421 0 0 1 66.53027-92.30469 8.00026 8.00026 0 0 0 5.46973-7.58984v-16h64v24a8.00235 8.00235 0 0 0 2.34277 5.65723l13.65723 13.65625v100.68652h16v-104a8.00235 8.00235 0 0 0 -2.34277-5.65723l-13.65723-13.65625v-60.68652a8.00039 8.00039 0 0 0 -8-8h-8v-32a8.00039 8.00039 0 0 0 -8-8zm-40 16h32v24h-32zm48 56h-64v-16h64z"/><path d="m304 120a8.00039 8.00039 0 0 0 -8 8v24h-8a8.00039 8.00039 0 0 0 -8 8v112h16v-104h91.293l36.707 66.07324v37.92676h16v-40a8.00029 8.00029 0 0 0 -1.00684-3.88477l-40-72a7.99986 7.99986 0 0 0 -6.99316-4.11523h-8v-24a8.00039 8.00039 0 0 0 -8-8h-8v-16h24v16a8.00235 8.00235 0 0 0 2.34277 5.65723l24 24a8.00181 8.00181 0 0 0 11.31446 0l8-8a8.00185 8.00185 0 0 0 1.93261-8.1875l-7.58984-22.76758v-6.70215h16a8.00039 8.00039 0 0 0 8-8v-32a8.00075 8.00075 0 0 0 -4.84863-7.35352l-56-24a8.0027 8.0027 0 0 0 -3.15137-.64648h-96a8.00039 8.00039 0 0 0 -8 8v56a8.00039 8.00039 0 0 0 8 8h16v16zm120-57.582 16 6.85742v18.72458h-16zm-7.58984 52.1123 5.28418 15.84961-13.69434-13.69339v-12.68652h8v8a8.0151 8.0151 0 0 0 .41016 2.53027zm-112.41016-26.5303v-40h86.3584l17.6416 7.56079v32.43921zm48 16v16h-24v-16zm16 32v16h-56v-16z"/><path d="m400 272v-40a8.00777 8.00777 0 0 0 -1.13965-4.11621l-24-40a8.00153 8.00153 0 0 0 -6.86035-3.88379h-48a8.00039 8.00039 0 0 0 -8 8v80h16v-72h35.4707l20.5293 34.21582v37.78418z"/></svg>