<svg id="visual" viewBox="0 0 320 738" width="320" height="738" xmlns="http://www.w3.org/2000/svg" xmlns:xlink="http://www.w3.org/1999/xlink" version="1.1"><rect x="0" y="0" width="320" height="738" fill="#ffffff"></rect><path d="M0 303L10.7 314.2C21.3 325.3 42.7 347.7 64 343.3C85.3 339 106.7 308 128 297.5C149.3 287 170.7 297 192 306.5C213.3 316 234.7 325 256 323.7C277.3 322.3 298.7 310.7 309.3 304.8L320 299L320 739L309.3 739C298.7 739 277.3 739 256 739C234.7 739 213.3 739 192 739C170.7 739 149.3 739 128 739C106.7 739 85.3 739 64 739C42.7 739 21.3 739 10.7 739L0 739Z" fill="#6600ff"></path><path d="M0 369L10.7 365.7C21.3 362.3 42.7 355.7 64 363.8C85.3 372 106.7 395 128 403.7C149.3 412.3 170.7 406.7 192 408.8C213.3 411 234.7 421 256 421.8C277.3 422.7 298.7 414.3 309.3 410.2L320 406L320 739L309.3 739C298.7 739 277.3 739 256 739C234.7 739 213.3 739 192 739C170.7 739 149.3 739 128 739C106.7 739 85.3 739 64 739C42.7 739 21.3 739 10.7 739L0 739Z" fill="#6626fd"></path><path d="M0 415L10.7 422.8C21.3 430.7 42.7 446.3 64 450.2C85.3 454 106.7 446 128 443.5C149.3 441 170.7 444 192 438.8C213.3 433.7 234.7 420.3 256 418.2C277.3 416 298.7 425 309.3 429.5L320 434L320 739L309.3 739C298.7 739 277.3 739 256 739C234.7 739 213.3 739 192 739C170.7 739 149.3 739 128 739C106.7 739 85.3 739 64 739C42.7 739 21.3 739 10.7 739L0 739Z" fill="#6839fb"></path><path d="M0 479L10.7 479.3C21.3 479.7 42.7 480.3 64 489.8C85.3 499.3 106.7 517.7 128 523C149.3 528.3 170.7 520.7 192 519.7C213.3 518.7 234.7 524.3 256 524.5C277.3 524.7 298.7 519.3 309.3 516.7L320 514L320 739L309.3 739C298.7 739 277.3 739 256 739C234.7 739 213.3 739 192 739C170.7 739 149.3 739 128 739C106.7 739 85.3 739 64 739C42.7 739 21.3 739 10.7 739L0 739Z" fill="#6a47f9"></path><path d="M0 586L10.7 579.8C21.3 573.7 42.7 561.3 64 560.8C85.3 560.3 106.7 571.7 128 579.7C149.3 587.7 170.7 592.3 192 586.2C213.3 580 234.7 563 256 567.2C277.3 571.3 298.7 596.7 309.3 609.3L320 622L320 739L309.3 739C298.7 739 277.3 739 256 739C234.7 739 213.3 739 192 739C170.7 739 149.3 739 128 739C106.7 739 85.3 739 64 739C42.7 739 21.3 739 10.7 739L0 739Z" fill="#6d52f6"></path><path d="M0 667L10.7 665.8C21.3 664.7 42.7 662.3 64 655.3C85.3 648.3 106.7 636.7 128 633C149.3 629.3 170.7 633.7 192 640.7C213.3 647.7 234.7 657.3 256 659.2C277.3 661 298.7 655 309.3 652L320 649L320 739L309.3 739C298.7 739 277.3 739 256 739C234.7 739 213.3 739 192 739C170.7 739 149.3 739 128 739C106.7 739 85.3 739 64 739C42.7 739 21.3 739 10.7 739L0 739Z" fill="#715df2"></path></svg>