<svg id="visual" viewBox="0 0 320 738" width="320" height="738" xmlns="http://www.w3.org/2000/svg" xmlns:xlink="http://www.w3.org/1999/xlink" version="1.1"><rect x="0" y="0" width="320" height="738" fill="#ffffff"></rect><path d="M0 357L10.7 366.8C21.3 376.7 42.7 396.3 64 392.5C85.3 388.7 106.7 361.3 128 352C149.3 342.7 170.7 351.3 192 359.7C213.3 368 234.7 376 256 375C277.3 374 298.7 364 309.3 359L320 354L320 739L309.3 739C298.7 739 277.3 739 256 739C234.7 739 213.3 739 192 739C170.7 739 149.3 739 128 739C106.7 739 85.3 739 64 739C42.7 739 21.3 739 10.7 739L0 739Z" fill="#6600ff"></path><path d="M0 415L10.7 412C21.3 409 42.7 403 64 410.2C85.3 417.3 106.7 437.7 128 445.3C149.3 453 170.7 448 192 449.8C213.3 451.7 234.7 460.3 256 461C277.3 461.7 298.7 454.3 309.3 450.7L320 447L320 739L309.3 739C298.7 739 277.3 739 256 739C234.7 739 213.3 739 192 739C170.7 739 149.3 739 128 739C106.7 739 85.3 739 64 739C42.7 739 21.3 739 10.7 739L0 739Z" fill="#6626fd"></path><path d="M0 455L10.7 461.8C21.3 468.7 42.7 482.3 64 485.8C85.3 489.3 106.7 482.7 128 480.5C149.3 478.3 170.7 480.7 192 476C213.3 471.3 234.7 459.7 256 457.8C277.3 456 298.7 464 309.3 468L320 472L320 739L309.3 739C298.7 739 277.3 739 256 739C234.7 739 213.3 739 192 739C170.7 739 149.3 739 128 739C106.7 739 85.3 739 64 739C42.7 739 21.3 739 10.7 739L0 739Z" fill="#6839fb"></path><path d="M0 511L10.7 511.3C21.3 511.7 42.7 512.3 64 520.7C85.3 529 106.7 545 128 549.7C149.3 554.3 170.7 547.7 192 546.8C213.3 546 234.7 551 256 551.2C277.3 551.3 298.7 546.7 309.3 544.3L320 542L320 739L309.3 739C298.7 739 277.3 739 256 739C234.7 739 213.3 739 192 739C170.7 739 149.3 739 128 739C106.7 739 85.3 739 64 739C42.7 739 21.3 739 10.7 739L0 739Z" fill="#6a47f9"></path><path d="M0 605L10.7 599.7C21.3 594.3 42.7 583.7 64 583.3C85.3 583 106.7 593 128 600C149.3 607 170.7 611 192 605.5C213.3 600 234.7 585 256 588.5C277.3 592 298.7 614 309.3 625L320 636L320 739L309.3 739C298.7 739 277.3 739 256 739C234.7 739 213.3 739 192 739C170.7 739 149.3 739 128 739C106.7 739 85.3 739 64 739C42.7 739 21.3 739 10.7 739L0 739Z" fill="#6d52f6"></path><path d="M0 675L10.7 674.2C21.3 673.3 42.7 671.7 64 665.7C85.3 659.7 106.7 649.3 128 646C149.3 642.7 170.7 646.3 192 652.5C213.3 658.7 234.7 667.3 256 669C277.3 670.7 298.7 665.3 309.3 662.7L320 660L320 739L309.3 739C298.7 739 277.3 739 256 739C234.7 739 213.3 739 192 739C170.7 739 149.3 739 128 739C106.7 739 85.3 739 64 739C42.7 739 21.3 739 10.7 739L0 739Z" fill="#715df2"></path></svg>