<svg id="visual" viewBox="0 0 320 738" width="320" height="738" xmlns="http://www.w3.org/2000/svg" xmlns:xlink="http://www.w3.org/1999/xlink" version="1.1"><rect x="0" y="0" width="320" height="738" fill="#ffffff"></rect><path d="M0 248L10.7 260.7C21.3 273.3 42.7 298.7 64 293.8C85.3 289 106.7 254 128 242.2C149.3 230.3 170.7 241.7 192 252.3C213.3 263 234.7 273 256 271.5C277.3 270 298.7 257 309.3 250.5L320 244L320 739L309.3 739C298.7 739 277.3 739 256 739C234.7 739 213.3 739 192 739C170.7 739 149.3 739 128 739C106.7 739 85.3 739 64 739C42.7 739 21.3 739 10.7 739L0 739Z" fill="#6600ff"></path><path d="M0 323L10.7 319.2C21.3 315.3 42.7 307.7 64 316.8C85.3 326 106.7 352 128 361.8C149.3 371.7 170.7 365.3 192 367.8C213.3 370.3 234.7 381.7 256 382.5C277.3 383.3 298.7 373.7 309.3 368.8L320 364L320 739L309.3 739C298.7 739 277.3 739 256 739C234.7 739 213.3 739 192 739C170.7 739 149.3 739 128 739C106.7 739 85.3 739 64 739C42.7 739 21.3 739 10.7 739L0 739Z" fill="#6626fd"></path><path d="M0 375L10.7 383.7C21.3 392.3 42.7 409.7 64 414C85.3 418.3 106.7 409.7 128 406.8C149.3 404 170.7 407 192 401C213.3 395 234.7 380 256 377.7C277.3 375.3 298.7 385.7 309.3 390.8L320 396L320 739L309.3 739C298.7 739 277.3 739 256 739C234.7 739 213.3 739 192 739C170.7 739 149.3 739 128 739C106.7 739 85.3 739 64 739C42.7 739 21.3 739 10.7 739L0 739Z" fill="#6839fb"></path><path d="M0 447L10.7 447.3C21.3 447.7 42.7 448.3 64 458.8C85.3 469.3 106.7 489.7 128 495.7C149.3 501.7 170.7 493.3 192 492.3C213.3 491.3 234.7 497.7 256 498C277.3 498.3 298.7 492.7 309.3 489.8L320 487L320 739L309.3 739C298.7 739 277.3 739 256 739C234.7 739 213.3 739 192 739C170.7 739 149.3 739 128 739C106.7 739 85.3 739 64 739C42.7 739 21.3 739 10.7 739L0 739Z" fill="#6a47f9"></path><path d="M0 568L10.7 561C21.3 554 42.7 540 64 539.3C85.3 538.7 106.7 551.3 128 560.3C149.3 569.3 170.7 574.7 192 567.7C213.3 560.7 234.7 541.3 256 545.8C277.3 550.3 298.7 578.7 309.3 592.8L320 607L320 739L309.3 739C298.7 739 277.3 739 256 739C234.7 739 213.3 739 192 739C170.7 739 149.3 739 128 739C106.7 739 85.3 739 64 739C42.7 739 21.3 739 10.7 739L0 739Z" fill="#6d52f6"></path><path d="M0 658L10.7 656.8C21.3 655.7 42.7 653.3 64 645.5C85.3 637.7 106.7 624.3 128 620.2C149.3 616 170.7 621 192 628.8C213.3 636.7 234.7 647.3 256 649.3C277.3 651.3 298.7 644.7 309.3 641.3L320 638L320 739L309.3 739C298.7 739 277.3 739 256 739C234.7 739 213.3 739 192 739C170.7 739 149.3 739 128 739C106.7 739 85.3 739 64 739C42.7 739 21.3 739 10.7 739L0 739Z" fill="#715df2"></path></svg>