<svg id="visual" viewBox="0 0 320 738" width="320" height="738" xmlns="http://www.w3.org/2000/svg" xmlns:xlink="http://www.w3.org/1999/xlink" version="1.1"><rect x="0" y="0" width="320" height="738" fill="#0f0e17"></rect><path d="M0 343L10.7 345C21.3 347 42.7 351 64 352.2C85.3 353.3 106.7 351.7 128 355.7C149.3 359.7 170.7 369.3 192 371.2C213.3 373 234.7 367 256 361.3C277.3 355.7 298.7 350.3 309.3 347.7L320 345L320 739L309.3 739C298.7 739 277.3 739 256 739C234.7 739 213.3 739 192 739C170.7 739 149.3 739 128 739C106.7 739 85.3 739 64 739C42.7 739 21.3 739 10.7 739L0 739Z" fill="#6600ff"></path><path d="M0 457L10.7 457.7C21.3 458.3 42.7 459.7 64 463C85.3 466.3 106.7 471.7 128 464.5C149.3 457.3 170.7 437.7 192 437.8C213.3 438 234.7 458 256 455C277.3 452 298.7 426 309.3 413L320 400L320 739L309.3 739C298.7 739 277.3 739 256 739C234.7 739 213.3 739 192 739C170.7 739 149.3 739 128 739C106.7 739 85.3 739 64 739C42.7 739 21.3 739 10.7 739L0 739Z" fill="#6626fd"></path><path d="M0 452L10.7 464C21.3 476 42.7 500 64 501.2C85.3 502.3 106.7 480.7 128 467C149.3 453.3 170.7 447.7 192 450.8C213.3 454 234.7 466 256 476.7C277.3 487.3 298.7 496.7 309.3 501.3L320 506L320 739L309.3 739C298.7 739 277.3 739 256 739C234.7 739 213.3 739 192 739C170.7 739 149.3 739 128 739C106.7 739 85.3 739 64 739C42.7 739 21.3 739 10.7 739L0 739Z" fill="#6839fb"></path><path d="M0 508L10.7 518.7C21.3 529.3 42.7 550.7 64 554.2C85.3 557.7 106.7 543.3 128 535.5C149.3 527.7 170.7 526.3 192 530C213.3 533.7 234.7 542.3 256 546.2C277.3 550 298.7 549 309.3 548.5L320 548L320 739L309.3 739C298.7 739 277.3 739 256 739C234.7 739 213.3 739 192 739C170.7 739 149.3 739 128 739C106.7 739 85.3 739 64 739C42.7 739 21.3 739 10.7 739L0 739Z" fill="#6a47f9"></path><path d="M0 619L10.7 619.3C21.3 619.7 42.7 620.3 64 618.8C85.3 617.3 106.7 613.7 128 610.7C149.3 607.7 170.7 605.3 192 600.3C213.3 595.3 234.7 587.7 256 593.2C277.3 598.7 298.7 617.3 309.3 626.7L320 636L320 739L309.3 739C298.7 739 277.3 739 256 739C234.7 739 213.3 739 192 739C170.7 739 149.3 739 128 739C106.7 739 85.3 739 64 739C42.7 739 21.3 739 10.7 739L0 739Z" fill="#6d52f6"></path><path d="M0 646L10.7 652.2C21.3 658.3 42.7 670.7 64 678.3C85.3 686 106.7 689 128 684.7C149.3 680.3 170.7 668.7 192 659.3C213.3 650 234.7 643 256 644.8C277.3 646.7 298.7 657.3 309.3 662.7L320 668L320 739L309.3 739C298.7 739 277.3 739 256 739C234.7 739 213.3 739 192 739C170.7 739 149.3 739 128 739C106.7 739 85.3 739 64 739C42.7 739 21.3 739 10.7 739L0 739Z" fill="#715df2"></path></svg>