<?xml version="1.0" encoding="iso-8859-1"?>
<!-- Generator: Adobe Illustrator 19.0.0, SVG Export Plug-In . SVG Version: 6.00 Build 0)  -->
<svg version="1.1" id="Capa_1" xmlns="http://www.w3.org/2000/svg" xmlns:xlink="http://www.w3.org/1999/xlink" x="0px" y="0px"
	 viewBox="0 0 512 512" style="enable-background:new 0 0 512 512;" xml:space="preserve">
<path style="fill:#FF7BAC;" d="M490.171,278.926l-20.972-6.717c-5.018-1.607-8.916-5.57-10.497-10.596
	c-24.133-76.742-113.748-111.985-203.951-111.985c-105.532,0-191.083,48.225-191.083,154.722
	c0,61.378,30.104,104.368,76.615,129.197c1.144,0.611,1.959,1.696,2.204,2.969l10.42,54.124c0.965,5.099,5.421,8.79,10.61,8.79
	h35.187c5.189,0,9.645-3.691,10.61-8.79l5.696-30.091c0.42-2.22,2.489-3.716,4.733-3.455c11.349,1.318,23.049,1.979,35.007,1.979
	c15.983,0,31.946-1.18,47.532-3.536c2.29-0.346,4.449,1.16,4.88,3.436l5.994,31.668c0.965,5.099,5.421,8.79,10.61,8.79h35.187
	c5.189,0,9.645-3.691,10.61-8.79l10.823-57.305c0.244-1.294,1.076-2.396,2.245-3.004c27.621-14.361,50.472-34.118,65.046-59.306
	c1.942-3.357,5.013-5.914,8.707-7.097l33.788-10.823c8.566-2.744,14.378-10.708,14.378-19.702v-34.776
	C504.549,289.633,498.737,281.669,490.171,278.926z"/>
<g>
	<path style="fill:#E8679C;" d="M501.914,288.556c-0.912-1.633-2.032-3.143-3.348-4.474c-0.028-0.028-0.053-0.06-0.082-0.088
		c-2.276-2.276-5.101-4.039-8.313-5.068l-15.547-4.98v18.289c0,22.721-14.477,42.917-35.995,50.215l0,0
		c-9.785,3.134-18.245,9.334-24.444,17.528c-7.59,10.034-16.61,19.05-26.776,27.053c-11.984,9.434-20.068,22.934-22.378,38.009
		c-1.647,10.75-2.924,25.201-3.737,33.329c-0.626,6.251-5.881,11.012-12.164,11.012h-17.416c-5.189,0-9.645-3.691-10.61-8.79
		l-5.994-34.649c-0.431-2.276-2.589-3.782-4.879-3.436c-15.585,2.355-39.497,3.536-55.48,3.536c-11.958,0-33.593-0.661-44.942-1.979
		c-2.244-0.261-4.313,1.235-4.734,3.456l-5.696,32.078c-0.965,5.099-5.421,8.79-10.61,8.79h-17.304c-5.189,0-9.645-3.691-10.61-8.79
		l-8.433-50.15c-0.245-1.273-1.06-2.359-2.203-2.969c-42.265-22.562-80.911-66.086-85.803-118.811c0,0.001,0,0.002,0,0.003
		c-0.116,1.294-0.218,2.598-0.309,3.91c-0.002,0.026-0.003,0.052-0.005,0.078c-0.009,0.13-0.017,0.26-0.025,0.389
		c-0.078,1.18-0.146,2.367-0.202,3.561c-0.023,0.496-0.039,0.997-0.057,1.495c-0.035,0.911-0.071,1.821-0.094,2.741
		c-0.034,1.491-0.057,2.991-0.057,4.506c0,7.672,0.47,15.057,1.384,22.155c1.12,8.696,2.912,16.957,5.315,24.793
		c0.131,0.428,0.268,0.853,0.403,1.279c0.334,1.054,0.681,2.104,1.04,3.149c0.143,0.417,0.285,0.835,0.431,1.25
		c0.988,2.79,2.058,5.522,3.206,8.197c0.122,0.284,0.243,0.568,0.367,0.851c0.566,1.294,1.148,2.577,1.751,3.844
		c0.1,0.21,0.204,0.417,0.304,0.626c0.562,1.166,1.143,2.323,1.737,3.473c0.102,0.197,0.202,0.396,0.305,0.593
		c0.648,1.234,1.317,2.453,2.001,3.66c0.149,0.262,0.299,0.523,0.45,0.784c2.215,3.847,4.609,7.554,7.175,11.123
		c0.245,0.341,0.495,0.679,0.744,1.017c0.623,0.849,1.256,1.69,1.898,2.523c0.253,0.328,0.504,0.657,0.76,0.983
		c0.869,1.105,1.749,2.2,2.652,3.277c0.008,0.01,0.017,0.02,0.025,0.03c0.904,1.077,1.83,2.135,2.767,3.184
		c0.284,0.318,0.573,0.632,0.86,0.947c0.7,0.769,1.409,1.529,2.127,2.282c0.29,0.304,0.578,0.609,0.87,0.91
		c0.983,1.012,1.977,2.014,2.992,2.998c0.002,0.002,0.005,0.005,0.007,0.007c1.131,1.096,2.282,2.174,3.453,3.234
		c2.341,2.12,4.759,4.169,7.251,6.147s5.059,3.885,7.696,5.72c1.319,0.918,2.655,1.818,4.009,2.701
		c1.219,0.794,2.456,1.57,3.702,2.335c0.358,0.22,0.72,0.437,1.081,0.654c0.942,0.568,1.889,1.128,2.841,1.678
		c0.377,0.218,0.753,0.437,1.133,0.652c1.282,0.727,2.572,1.444,3.88,2.143c0.286,0.153,0.551,0.335,0.792,0.542
		c0.217,0.187,0.407,0.4,0.581,0.624c0.052,0.066,0.097,0.136,0.144,0.206c0.12,0.173,0.225,0.355,0.318,0.545
		c0.037,0.076,0.076,0.149,0.109,0.228c0.11,0.265,0.203,0.538,0.259,0.825l10.42,54.124c0.121,0.637,0.296,1.253,0.52,1.841
		c0.112,0.294,0.237,0.582,0.373,0.863s0.284,0.554,0.442,0.82s0.328,0.524,0.508,0.774c0.181,0.251,0.372,0.493,0.572,0.727
		c0.227,0.265,0.47,0.514,0.721,0.755c0.079,0.076,0.163,0.147,0.245,0.221c0.181,0.163,0.366,0.322,0.558,0.472
		c0.096,0.076,0.194,0.15,0.293,0.222c0.197,0.144,0.399,0.28,0.605,0.411c0.093,0.059,0.184,0.121,0.279,0.177
		c0.299,0.177,0.605,0.344,0.921,0.492c0.005,0.002,0.009,0.004,0.014,0.006c0.316,0.147,0.642,0.276,0.973,0.392
		c0.105,0.037,0.212,0.067,0.318,0.101c0.236,0.075,0.475,0.144,0.717,0.202c0.122,0.03,0.245,0.057,0.369,0.083
		c0.245,0.05,0.493,0.091,0.744,0.124c0.113,0.015,0.225,0.034,0.339,0.045c0.361,0.037,0.725,0.06,1.094,0.061
		c0.002,0,0.004,0,0.005,0h35.187c1.622,0,3.172-0.36,4.566-1.012c0.558-0.261,1.09-0.568,1.593-0.917
		c0.502-0.349,0.975-0.74,1.411-1.169c0.655-0.643,1.229-1.371,1.705-2.168c0.634-1.063,1.094-2.25,1.335-3.524l5.696-30.091v-0.001
		c0.047-0.25,0.122-0.488,0.209-0.718c0.026-0.069,0.056-0.133,0.086-0.2c0.073-0.165,0.154-0.324,0.246-0.477
		c0.036-0.061,0.071-0.122,0.11-0.181c0.133-0.198,0.276-0.388,0.438-0.559c0.441-0.467,0.992-0.814,1.595-1.046
		c0.058-0.023,0.116-0.044,0.175-0.065c0.145-0.049,0.29-0.091,0.44-0.124c0.114-0.026,0.231-0.042,0.348-0.059
		c0.113-0.015,0.224-0.035,0.339-0.041c0.245-0.015,0.494-0.014,0.747,0.016c1.891,0.22,3.796,0.414,5.707,0.597
		c0.478,0.046,0.957,0.091,1.436,0.134c1.91,0.174,3.826,0.336,5.754,0.473c0.009,0.001,0.019,0.001,0.028,0.002
		c1.928,0.137,3.867,0.249,5.812,0.35c0.49,0.025,0.98,0.049,1.471,0.073c1.953,0.091,3.912,0.172,5.881,0.227
		c2.956,0.083,5.929,0.124,8.919,0.124c3.996,0,7.99-0.074,11.978-0.221c2.042-0.075,4.082-0.171,6.119-0.286
		c0.207-0.012,0.414-0.028,0.621-0.04c1.851-0.108,3.7-0.227,5.546-0.367c0.043-0.003,0.086-0.008,0.129-0.011
		c4.048-0.308,8.083-0.692,12.099-1.152c0.012-0.001,0.025-0.003,0.037-0.004c1.837-0.211,3.669-0.436,5.498-0.677
		c0.884-0.117,1.764-0.249,2.645-0.374c0.97-0.137,1.942-0.265,2.909-0.412c1.96-0.297,3.81,0.806,4.556,2.563
		c0.01,0.023,0.025,0.043,0.034,0.066c0.104,0.258,0.185,0.53,0.239,0.814l2.997,15.834l2.997,15.834
		c0.965,5.099,5.421,8.79,10.61,8.79h35.187c0.002,0,0.004,0,0.005,0c0.369,0,0.733-0.024,1.094-0.061
		c0.114-0.012,0.226-0.03,0.339-0.045c0.25-0.033,0.499-0.074,0.744-0.124c0.123-0.025,0.246-0.053,0.368-0.082
		c0.243-0.059,0.481-0.127,0.718-0.203c0.106-0.034,0.213-0.064,0.317-0.101c0.333-0.117,0.66-0.246,0.978-0.394
		c0.002-0.001,0.003-0.002,0.005-0.002c0.318-0.148,0.625-0.316,0.926-0.494c0.095-0.056,0.186-0.118,0.279-0.177
		c0.207-0.131,0.409-0.267,0.606-0.412c0.098-0.072,0.195-0.146,0.291-0.221c0.192-0.151,0.378-0.31,0.559-0.473
		c0.081-0.073,0.165-0.144,0.244-0.22c0.251-0.241,0.494-0.491,0.721-0.755c0.089-0.103,0.169-0.215,0.254-0.322
		c0.298-0.375,0.579-0.764,0.827-1.179c0.317-0.531,0.591-1.094,0.815-1.683c0.224-0.589,0.4-1.204,0.52-1.841l2.372-12.557
		l2.465-13.05l1.546-8.184l4.441-23.514l0,0l0.398-2.109c0.729-0.361,1.023-0.507,1.752-0.868c0.028,0.009,0.045,0.005,0.059-0.003
		c0.013-0.007,0.023-0.017,0.036-0.024c0.844-0.439,1.669-0.899,2.504-1.347c0.873-0.47,1.756-0.929,2.62-1.41
		c0.748-0.417,1.478-0.853,2.219-1.278c0.932-0.535,1.872-1.06,2.791-1.607c0.757-0.451,1.494-0.922,2.242-1.381
		c0.882-0.542,1.773-1.075,2.643-1.629c0.78-0.497,1.539-1.015,2.309-1.522c0.817-0.538,1.645-1.067,2.451-1.616
		c0.761-0.519,1.5-1.059,2.251-1.588c0.792-0.558,1.595-1.107,2.374-1.676c0.727-0.531,1.432-1.082,2.148-1.623
		c0.781-0.589,1.573-1.169,2.342-1.77c0.695-0.544,1.368-1.108,2.052-1.661c0.765-0.618,1.541-1.227,2.293-1.857
		c0.692-0.58,1.359-1.18,2.039-1.77c0.72-0.625,1.452-1.24,2.159-1.876c0.66-0.594,1.294-1.207,1.942-1.811
		c0.702-0.654,1.416-1.298,2.104-1.963c0.628-0.608,1.231-1.236,1.848-1.853c0.681-0.682,1.373-1.353,2.039-2.047
		c0.606-0.631,1.186-1.283,1.78-1.924c0.649-0.7,1.31-1.391,1.943-2.103c0.578-0.65,1.129-1.32,1.694-1.979
		c0.621-0.725,1.255-1.439,1.86-2.175c0.551-0.669,1.073-1.359,1.611-2.039c0.591-0.747,1.195-1.484,1.77-2.243
		c0.528-0.697,1.028-1.415,1.543-2.122c0.554-0.761,1.121-1.513,1.659-2.286c0.503-0.723,0.976-1.466,1.464-2.199
		c0.519-0.779,1.052-1.548,1.554-2.338c0.624-0.981,1.194-1.998,1.818-2.978c0.37-0.582,0.717-1.177,1.063-1.773
		c1.9-3.271,4.898-5.763,8.502-6.917l0.122-0.039h0.001l17.238-5.521l16.551-5.301c8.566-2.744,14.377-10.708,14.377-19.702v-34.783
		c0-3.073-0.692-6.019-1.927-8.684C502.403,289.472,502.167,289.009,501.914,288.556z"/>
	<path style="fill:#E8679C;" d="M336.717,168.411c1.07-5.08,4.584-9.304,9.304-11.464c18.136-8.301,64.344-28.278,76.222-22.055
		c14.876,7.792,7.084,91.91-15.584,104.749C384.764,252.041,321.234,241.89,336.717,168.411z"/>
</g>
<circle style="fill:#FFB125;" cx="230.68" cy="106.818" r="94.25"/>
<path style="fill:#FF7BAC;" d="M415.936,144.637c-10.344,0-35.391,8.524-65.367,22.246c-1.637,0.749-2.818,2.163-3.159,3.78
	c-4.368,20.732-2.032,37.418,6.758,48.252c1.028,1.267,2.155,2.459,3.369,3.574c1.414,1.299,3.693,0.571,4.163-1.29
	C372.119,179.94,422.677,144.637,415.936,144.637z"/>
<path style="fill:#FF901D;" d="M298.48,41.354L165.22,174.615c36.892,35.643,95.69,35.262,132.106-1.154
	S334.123,78.246,298.48,41.354z"/>
<path style="fill:#DD7219;" d="M228.513,153.579c-16.288-0.263-27.322-9.064-27.322-15.5c0-3.153,2.758-7.488,6.042-7.488
	c4.335,0,7.881,9.195,21.28,10.246v-30.869c-11.822-4.203-24.958-8.932-24.958-25.746c0-16.551,12.479-23.119,24.958-24.433V55.98
	c0-1.576,1.576-3.021,3.81-3.021c1.97,0,3.941,1.445,3.941,3.021v3.547c8.932,0.263,21.543,3.021,21.543,9.458
	c0,2.496-1.839,7.487-5.78,7.487c-3.152,0-6.568-4.203-15.763-4.86v26.665c11.428,4.203,23.907,9.983,23.907,27.848
	c0,16.157-9.72,25.089-23.907,27.06v4.466c0,1.576-1.97,3.021-3.941,3.021c-2.233,0-3.81-1.445-3.81-3.021L228.513,153.579
	L228.513,153.579z M229.302,95.781V71.875c-7.356,0.919-12.61,4.203-12.61,11.034C216.691,90.396,222.339,93.154,229.302,95.781z
	 M235.475,112.858v27.716c7.093-1.314,11.559-5.517,11.559-13.005C247.035,119.294,241.912,115.616,235.475,112.858z"/>
<path d="M429.954,278.063c0-4.116-3.336-7.451-7.451-7.451s-7.451,3.336-7.451,7.451c0,5.217-4.244,9.461-9.461,9.461
	c-5.216,0-9.461-4.244-9.461-9.461c0-4.116-3.336-7.451-7.451-7.451s-7.451,3.336-7.451,7.451c0,13.434,10.93,24.363,24.363,24.363
	C419.024,302.426,429.954,291.496,429.954,278.063z"/>
<path d="M492.444,271.83l-20.972-6.718c-2.686-0.861-4.803-3.005-5.662-5.736c-4.42-14.053-11.09-27.246-19.825-39.214
	c-3.981-5.455-8.408-10.664-13.244-15.623c0,0.001,0,0.001,0,0.001c3.094-13.573,4.776-28.934,4.557-42.206
	c-0.312-18.985-4.106-30.12-11.598-34.044c-4.035-2.116-16.315-8.544-82.782,21.882c-1.574,0.72-3.044,1.607-4.405,2.623
	c-4.481-1.204-9.061-2.318-13.669-3.318c-0.555-0.121-1.127-0.228-1.686-0.346l0,0c5.386-11.766,8.531-24.545,9.122-37.737
	c0.184-4.112-2.999-7.594-7.111-7.777c-4.101-0.204-7.594,2.998-7.777,7.11c-0.971,21.691-9.969,42.1-25.335,57.467
	c-9.181,9.181-19.931,15.85-31.388,20.05c-19.869-2.788-40.107-2.788-59.976,0c-11.458-4.2-22.207-10.869-31.388-20.05
	c-16.394-16.394-25.423-38.191-25.423-61.376c0-23.186,9.029-44.982,25.423-61.376c16.394-16.395,38.192-25.424,61.376-25.424
	s44.982,9.029,61.376,25.424c6.588,6.588,12.032,14.106,16.181,22.343c1.851,3.676,6.332,5.156,10.007,3.304
	c3.676-1.85,5.155-6.331,3.304-10.006c-4.863-9.659-11.24-18.466-18.953-26.18c-19.209-19.209-44.749-29.788-71.914-29.788
	s-52.705,10.579-71.914,29.788c-19.209,19.21-29.788,44.749-29.788,71.914s10.579,52.705,29.788,71.914
	c5.541,5.541,11.569,10.306,17.945,14.298c0.002,0,0.004-0.001,0.006-0.001c-4.633,1.204-9.231,2.556-13.778,4.076
	c-3.903,1.305-6.009,5.526-4.704,9.43c1.304,3.903,5.527,6.009,9.429,4.705c40.636-13.585,85.396-13.585,126.032,0
	c0.784,0.262,1.58,0.386,2.363,0.386c3.117,0,6.023-1.972,7.066-5.091c1.305-3.903-0.801-8.125-4.704-9.43
	c-4.547-1.52-9.145-2.873-13.778-4.076c0.002,0,0.004,0.001,0.006,0.001c6.377-3.992,12.404-8.757,17.945-14.298
	c4.902-4.902,9.229-10.255,12.986-15.944c2.054,0.399,4.093,0.817,6.102,1.253c2.676,0.581,5.34,1.205,7.98,1.86
	c-0.083,0.324-0.168,0.647-0.237,0.976c-3.634,17.245-3.398,32.497,0.701,45.33c3.684,11.535,10.333,20.88,19.76,27.777
	c11.111,8.128,24.525,11.639,36.676,11.639c9.145,0,17.576-1.99,23.768-5.497c7.004-3.967,12.872-12.326,17.517-24.876
	c2.147,2.506,4.182,5.073,6.1,7.701c7.777,10.654,13.714,22.396,17.646,34.898c2.309,7.343,8.041,13.121,15.332,15.458l20.972,6.718
	c5.503,1.763,9.2,6.828,9.2,12.606v34.775c0,5.778-3.697,10.843-9.2,12.606l-33.789,10.823c-5.406,1.733-9.981,5.448-12.882,10.462
	c-13.275,22.942-34.146,41.927-62.037,56.428c-3.222,1.677-5.454,4.676-6.126,8.23l-10.822,57.303
	c-0.299,1.579-1.682,2.724-3.289,2.724h-35.187c-1.607,0-2.99-1.146-3.289-2.724l-5.994-31.669
	c-1.18-6.231-7.024-10.37-13.314-9.417c-15.157,2.292-30.775,3.453-46.418,3.453c-11.638,0-23.127-0.649-34.15-1.93
	c-6.095-0.701-11.773,3.454-12.912,9.472l-5.696,30.091c-0.299,1.579-1.682,2.724-3.289,2.724h-35.187
	c-1.607,0-2.99-1.146-3.293-2.748l-10.42-54.122c-0.671-3.487-2.861-6.452-6.012-8.135C96.25,401.594,71.12,359.191,71.12,304.351
	c0-27.708,6.062-52.209,18.017-72.825c11.156-19.239,27.45-35.146,48.429-47.281c3.562-2.061,4.779-6.619,2.719-10.182
	c-2.06-3.562-6.618-4.777-10.181-2.719C89.425,194.875,64.89,231.18,58.135,277.289v-0.001c-0.717-0.065-1.435-0.127-2.15-0.201
	c0.13-4.975-0.77-9.995-2.73-14.867c-4.323-10.746-13.203-18.502-22.624-19.759c-7.424-0.994-14.489,2.158-19.392,8.636
	c-7.109,9.394-5.95,16.828-3.727,21.41c3.753,7.733,13.4,13.203,29.409,16.642c-0.44,0.659-0.924,1.321-1.454,1.986
	c-9.459,11.863-20.603,14.486-27.839,14.733C3.392,306.012,0,309.413,0,313.652v0.036c0,4.181,3.299,7.591,7.476,7.782
	c0.535,0.025,1.094,0.038,1.676,0.038c9.156,0,23.851-3.377,37.969-21.08c2.229-2.794,4.045-5.742,5.441-8.788
	c1.406,0.159,2.757,0.295,4.051,0.415c0-0.003,0-0.005,0.001-0.008c-0.254,4.038-0.395,8.135-0.395,12.304
	c0,31.028,7.397,58.693,21.984,82.23c13.45,21.7,32.707,39.468,57.255,52.83l10.13,52.616c1.629,8.608,9.17,14.856,17.931,14.856
	h35.187c8.761,0,16.302-6.248,17.931-14.856l5.15-27.208c10.696,1.133,21.77,1.707,32.965,1.707c15.36,0,30.702-1.07,45.654-3.182
	l5.429,28.685c1.63,8.608,9.171,14.855,17.931,14.855h35.187c8.761,0,16.302-6.248,17.932-14.859l10.537-55.791
	c29.768-15.741,52.206-36.419,66.704-61.475c1.045-1.806,2.654-3.131,4.53-3.732l33.788-10.823
	C504.141,356.455,512,345.686,512,333.403v-34.775C512,286.346,504.141,275.577,492.444,271.83z M421.278,183.273
	c-2.868,24.526-10.561,45.506-18.291,49.884c-8.786,4.977-29.071,5.938-44.301-5.203c-15.248-11.154-20.323-31.212-14.678-58.006
	c0-0.001,0-0.001,0-0.001c0.567-2.691,2.479-5.019,5.114-6.225c37.304-17.076,58.811-22.661,66.801-22.661
	c1.206,0,2.104,0.127,2.702,0.361C421.025,143.979,424.173,158.521,421.278,183.273z M20.921,266.001
	c-0.771-1.59,1.049-4.385,2.203-5.911c1.829-2.416,3.514-2.91,4.787-2.91c0.269,0,0.52,0.022,0.75,0.053
	c3.426,0.457,8.226,4.227,10.769,10.548c0.599,1.488,1.377,3.953,1.559,7.027C30.674,272.67,22.66,269.589,20.921,266.001z"/>
<g>
</g>
<g>
</g>
<g>
</g>
<g>
</g>
<g>
</g>
<g>
</g>
<g>
</g>
<g>
</g>
<g>
</g>
<g>
</g>
<g>
</g>
<g>
</g>
<g>
</g>
<g>
</g>
<g>
</g>
</svg>
