<svg id="Layer_1" enable-background="new 0 0 512 512" height="512" viewBox="0 0 512 512" width="512" xmlns="http://www.w3.org/2000/svg"><g><path clip-rule="evenodd" d="m437.691 486.891c0 2.712-.517 5.036-1.55 6.973s-3.357 3.487-7.102 4.778c-3.874 1.162-9.298 2.066-16.658 2.583s-17.304.775-29.83.775c-10.589 0-18.982-.258-25.31-.775-6.327-.516-11.364-1.421-14.979-2.841-3.616-1.421-6.198-3.099-7.748-5.295-1.42-2.195-2.712-4.778-3.745-7.748l-44.164-109.634c-5.294-12.397-10.46-23.502-15.496-33.058-5.036-9.685-10.718-17.692-16.917-24.148-6.198-6.457-13.43-11.235-21.565-14.592-8.006-3.228-17.433-4.907-28.022-4.907h-31.121v187.115c0 2.453-.775 4.778-2.453 6.715-1.679 2.066-4.39 3.745-8.136 5.036-3.744 1.162-8.781 2.195-15.109 2.97-6.198.775-14.334 1.162-24.019 1.162-9.556 0-17.562-.388-24.019-1.162-6.457-.775-11.493-1.808-15.238-2.97-3.744-1.292-6.456-2.97-7.877-4.907-1.55-2.066-2.324-4.391-2.324-6.844v-444.738c0-11.106 2.841-19.112 8.523-24.019s12.655-7.36 20.92-7.36h126.809c12.784 0 23.502.258 31.767.775s15.883 1.162 22.728 1.808c19.628 2.841 37.32 7.619 53.074 14.463 15.754 6.715 29.184 15.625 40.161 26.601 10.976 10.976 19.37 23.89 25.181 38.869 5.811 14.98 8.652 32.155 8.652 51.654 0 16.271-2.066 31.251-6.199 44.681-4.261 13.559-10.331 25.569-18.466 36.158-8.006 10.589-17.95 19.757-29.83 27.505-11.88 7.877-25.439 14.075-40.548 18.983 7.361 3.487 14.204 7.748 20.661 12.784 6.456 5.036 12.526 11.235 18.208 18.466 5.682 7.232 11.105 15.367 16.142 24.665 5.036 9.169 9.943 19.629 14.721 31.25l41.452 96.721c3.745 9.556 6.328 16.529 7.49 21.049 1.291 4.39 1.936 7.876 1.936 10.459zm-128.617-332.52c0-16.142-3.616-29.83-10.976-40.806-7.361-11.106-19.37-18.983-36.029-23.502-5.036-1.291-10.718-2.195-17.174-2.97-6.457-.775-15.367-1.162-26.731-1.162h-44.681v138.69h50.75c14.205 0 26.472-1.679 37.061-5.165 10.718-3.358 19.499-8.136 26.602-14.334 7.102-6.07 12.397-13.559 15.883-22.082 3.487-8.524 5.295-18.079 5.295-28.669z" fill="#00ccf2" fill-rule="evenodd"/><g><path d="m173.483 234.62h50.75c15.431 0 28.557-1.847 40.122-5.645 11.815-3.711 21.936-9.191 30.079-16.288 8.189-7.01 14.447-15.71 18.602-25.862 4.007-9.795 6.038-20.714 6.038-32.454 0-18.235-4.263-33.838-12.641-46.331-8.742-13.189-22.788-22.485-41.746-27.628-.044-.012-.089-.024-.134-.035-5.05-1.295-10.745-2.286-18.467-3.212-6.917-.831-16.051-1.234-27.922-1.234h-44.681c-5.523 0-10 4.477-10 10v138.69c0 5.522 4.477 9.999 10 9.999zm10-138.69h34.681c10.913 0 19.505.367 25.539 1.091 6.689.803 11.718 1.665 15.816 2.711 14.098 3.837 24.273 10.35 30.273 19.401 6.158 9.184 9.281 21.04 9.281 35.237 0 9.13-1.53 17.502-4.549 24.881-2.943 7.193-7.359 13.339-13.126 18.267-.026.022-.052.045-.078.067-6.152 5.37-13.682 9.401-23.016 12.326-.047.014-.092.029-.138.044-9.532 3.138-20.632 4.664-33.935 4.664h-40.75v-118.689z"/><path d="m445.395 473.77c-1.345-5.157-4.102-12.546-7.82-22.036-.038-.097-.078-.194-.119-.291l-41.424-96.654c-4.956-12.051-10.062-22.881-15.147-32.141-5.036-9.298-10.78-18.073-17.071-26.08-6.241-7.943-12.943-14.73-19.921-20.173-1.286-1.003-2.589-1.979-3.907-2.926 8.392-3.726 16.047-7.897 23.106-12.58 12.793-8.343 23.675-18.386 32.297-29.789 8.813-11.472 15.38-24.311 20.094-39.308 4.406-14.319 6.641-30.342 6.641-47.622 0-20.718-3.139-39.313-9.328-55.271-6.264-16.144-15.493-30.383-27.434-42.323-11.875-11.876-26.447-21.542-43.247-28.702-16.347-7.102-35.063-12.212-55.626-15.188-.164-.023-.328-.043-.493-.059-8.27-.781-15.807-1.38-23.044-1.833-8.436-.527-19.334-.794-32.391-.794h-126.81c-10.694 0-19.932 3.294-27.455 9.792-7.954 6.869-11.987 17.497-11.987 31.588v444.737c0 4.614 1.484 9.04 4.294 12.803 2.654 3.596 6.909 6.422 12.646 8.401.098.034.197.066.296.097 4.558 1.415 10.282 2.541 17.011 3.348 6.819.818 15.301 1.233 25.21 1.233 10.183 0 18.682-.417 25.234-1.236 6.663-.815 12.335-1.941 16.859-3.346.099-.031.197-.063.295-.097 5.455-1.881 9.672-4.593 12.536-8.061 3.136-3.675 4.793-8.216 4.793-13.144v-48.558c0-5.523-4.477-10-10-10s-10 4.477-10 10v48.558c0 .105-.009.158-.011.166-.069.08-.138.162-.204.244-.007.008-.725.864-3.493 1.838-2.356.72-6.528 1.73-13.23 2.55-5.758.72-13.421 1.085-22.778 1.085-9.116 0-16.796-.367-22.828-1.091-5.37-.644-9.967-1.523-13.311-2.544-1.999-.704-2.839-1.31-3.05-1.479-.248-.354-.27-.574-.27-.769v-444.736c0-8.017 1.702-13.552 5.059-16.451 3.841-3.316 8.546-4.928 14.384-4.928h126.809c12.644 0 23.122.254 31.143.755 6.95.435 14.203 1.011 22.163 1.76 18.709 2.727 35.624 7.337 50.342 13.73 14.5 6.18 26.951 14.414 37.01 24.473 9.964 9.963 17.678 21.878 22.93 35.415 5.292 13.641 7.975 29.803 7.975 48.037 0 15.285-1.937 29.328-5.738 41.682-3.981 12.666-9.495 23.481-16.902 33.124-7.271 9.617-16.462 18.082-27.38 25.203-10.795 7.159-23.262 12.983-38.11 17.806-3.897 1.266-6.628 4.78-6.891 8.869s1.995 7.925 5.698 9.679c6.646 3.149 12.794 6.954 18.792 11.632 5.703 4.449 11.253 10.087 16.495 16.76 5.595 7.12 10.713 14.942 15.24 23.3 4.765 8.676 9.555 18.849 14.236 30.238.019.046.038.092.058.138l41.391 96.577c3.002 7.664 5.927 15.342 7.059 19.744.028.111.059.221.091.331 1.381 4.698 1.53 6.907 1.53 7.639 0 .703-.063 1.213-.143 1.577-.33.166-.836.391-1.578.654-2.368.69-6.734 1.597-14.288 2.128-7.097.498-16.897.75-29.131.75-10.225 0-18.467-.25-24.496-.741-6.869-.562-10.393-1.497-12.137-2.182-2.255-.886-3.028-1.551-3.197-1.715-.992-1.587-1.835-3.37-2.509-5.306-.053-.151-.108-.302-.169-.45l-44.164-109.636c-.025-.064-.052-.128-.079-.191-5.648-13.224-10.831-24.278-15.82-33.745-5.355-10.298-11.605-19.2-18.574-26.459-6.971-7.261-15.371-12.951-25.041-16.941-9.27-3.738-19.957-5.633-31.762-5.633h-31.121c-5.523 0-10 4.477-10 10v48.558c0 5.523 4.477 10 10 10s10-4.477 10-10v-38.558h21.121c9.231 0 17.401 1.407 24.208 4.151 7.114 2.937 13.057 6.951 18.167 12.274 5.649 5.884 10.783 13.23 15.284 21.885 4.682 8.882 9.764 19.726 15.106 32.229l44.039 109.327c1.229 3.474 2.812 6.72 4.709 9.653.073.113.149.226.228.336 2.641 3.741 6.651 6.631 12.261 8.835 4.422 1.737 10.251 2.882 17.823 3.5 6.662.543 15.207.808 26.123.808 12.698 0 22.97-.269 30.531-.799 7.816-.549 13.977-1.524 18.83-2.98.13-.039.259-.08.387-.125 6.257-2.157 10.399-5.274 12.663-9.521 1.811-3.391 2.729-7.322 2.729-11.684-.001-3.54-.752-7.834-2.297-13.121z"/><path d="m173.491 382.559h-.007c-5.523 0-9.996 4.477-9.996 10s4.48 10 10.003 10 10-4.477 10-10-4.477-10-10-10z"/></g></g></svg>