<?xml version="1.0"?>
<svg xmlns="http://www.w3.org/2000/svg" xmlns:xlink="http://www.w3.org/1999/xlink" xmlns:svgjs="http://svgjs.com/svgjs" version="1.1" width="512" height="512" x="0" y="0" viewBox="0 0 512 512" style="enable-background:new 0 0 512 512" xml:space="preserve" class=""><g transform="matrix(1,0,0,1,0,0)"><link type="text/css" rel="stylesheet" id="dark-mode-custom-link"/><link type="text/css" rel="stylesheet" id="dark-mode-general-link"/><style lang="en" type="text/css" id="dark-mode-custom-style"/><style lang="en" type="text/css" id="dark-mode-native-style"/><path xmlns="http://www.w3.org/2000/svg" d="m416.24 239.27c66.67 113.77-27.52 256.73-160.24 256.73-51.31 0-96.86-21.37-129.59-54.19-51.92-52.08-71.54-132.99-30.65-203.15l160.24-222.66z" fill="#5fa8ed" data-original="#5fa8ed" style="" class=""/><path xmlns="http://www.w3.org/2000/svg" d="m256 194.4a120 120 0 1 1 -120 120 120 120 0 0 1 120-120z" fill="#53d8d8" data-original="#53d8d8" style="" class=""/><path xmlns="http://www.w3.org/2000/svg" d="m288.19 301.71-46.13 68.91 2.73-46.76h-20.98l18.85-68.33h33.02l-13.06 46.18z" fill="#f3ce7d" data-original="#f3ce7d" style="" class=""/><path xmlns="http://www.w3.org/2000/svg" d="m156.41 441.81c-51.92-52.08-71.54-132.99-30.65-203.15l145.219-201.788-14.979-20.872-160.24 222.66c-40.89 70.16-21.27 151.07 30.65 203.15 32.73 32.82 78.28 54.19 129.59 54.19q7.605 0 15.032-.619a182.939 182.939 0 0 1 -114.622-53.571z" fill="#4e88b7" data-original="#4e88b7" style="" class=""/><g xmlns="http://www.w3.org/2000/svg" fill="#284268"><path d="m288.191 296h-17.638l10.9-38.69a5.667 5.667 0 0 0 -.988-5.091 5.851 5.851 0 0 0 -4.784-2.219h-33.022a5.8 5.8 0 0 0 -5.784 4.171l-18.85 68.214a6.015 6.015 0 0 0 5.784 7.615h14.621l-2.362 40.336a5.995 5.995 0 0 0 10.976 3.628l46.133-68.909a5.748 5.748 0 0 0 .307-6.022 5.872 5.872 0 0 0 -5.293-3.033zm-38.858 53.11 1.447-24.824a5.946 5.946 0 0 0 -5.989-6.286h-13.1l15.54-56h20.521l-10.9 38.313a6.043 6.043 0 0 0 5.769 7.687h14.333z" fill="#284268" data-original="#284268" style="" class=""/><path d="m256 188.4a126 126 0 1 0 126 126 126.143 126.143 0 0 0 -126-126zm0 240a114 114 0 1 1 114-114 114.129 114.129 0 0 1 -114 114z" fill="#284268" data-original="#284268" style="" class=""/><path d="m236.452 225.047a6.045 6.045 0 0 0 1.2-.12c1.54-.312 3.114-.588 4.675-.822a6 6 0 1 0 -1.772-11.868c-1.765.264-3.542.576-5.284.929a6 6 0 0 0 1.184 11.881z" fill="#284268" data-original="#284268" style="" class=""/><path d="m223.215 222.524a6 6 0 0 0 -7.87-3.171 103.794 103.794 0 0 0 -63.245 95.647 6 6 0 0 0 12 0 91.81 91.81 0 0 1 55.948-84.6 6 6 0 0 0 3.167-7.876z" fill="#284268" data-original="#284268" style="" class=""/><path d="m421.119 235.773-160.244-223.273a6 6 0 0 0 -4.875-2.5 6 6 0 0 0 -4.87 2.495l-160.245 222.664c-.112.156-.217.317-.313.483-15.889 27.258-23.534 56.72-22.725 87.566.748 28.477 8.988 57.182 23.83 83.013 33.946 59.079 96.911 95.779 164.323 95.779 67.534 0 130.565-36.782 164.5-95.992 14.764-25.764 22.946-54.363 23.662-82.706a161.79 161.79 0 0 0 -22.736-87.064q-.145-.238-.307-.465zm11.042 87.227c-.666 26.359-8.3 53-22.078 77.043-31.797 55.487-90.838 89.957-154.083 89.957-63.128 0-122.106-34.393-153.918-89.758-13.853-24.109-21.543-50.856-22.239-77.348a151.2 151.2 0 0 1 20.957-80.961l155.2-215.652 155.207 216.262a149.944 149.944 0 0 1 20.954 80.457z" fill="#284268" data-original="#284268" style="" class=""/></g></g></svg>
