<svg id="visual" viewBox="0 0 900 600" width="900" height="600" xmlns="http://www.w3.org/2000/svg" xmlns:xlink="http://www.w3.org/1999/xlink" version="1.1"><rect x="0" y="0" width="900" height="600" fill="#ffffff"></rect><path d="M0 370L21.5 387.8C43 405.7 86 441.3 128.8 452.3C171.7 463.3 214.3 449.7 257.2 431.3C300 413 343 390 385.8 396.2C428.7 402.3 471.3 437.7 514.2 450.7C557 463.7 600 454.3 642.8 436.8C685.7 419.3 728.3 393.7 771.2 379.5C814 365.3 857 362.7 878.5 361.3L900 360L900 601L878.5 601C857 601 814 601 771.2 601C728.3 601 685.7 601 642.8 601C600 601 557 601 514.2 601C471.3 601 428.7 601 385.8 601C343 601 300 601 257.2 601C214.3 601 171.7 601 128.8 601C86 601 43 601 21.5 601L0 601Z" fill="#6600FF" stroke-linecap="round" stroke-linejoin="miter"></path></svg>